<svg xmlns="http://www.w3.org/2000/svg" xmlns:xlink="http://www.w3.org/1999/xlink" viewBox="0 0 24.15 24.27"><defs><style>.cls-1{fill:none;}.cls-2{fill:gray;}.cls-3{clip-path:url(#clip-path);}</style><clipPath id="clip-path" transform="translate(0 0)"><rect class="cls-1" width="24.15" height="24.27"/></clipPath></defs><title>Ресурс 1</title><g id="Слой_2" data-name="Слой 2"><g id="Слой_1-2" data-name="Слой 1"><path class="cls-2" d="M12.47,4.75l-.11,0L5,6.69l6.21,3v0L18.75,7.3l.5-.16Zm-.14.73.13-.35Zm-1,3.43-4.17-2,5.31-1.38,4.49,1.59Z" transform="translate(0 0)"/><path class="cls-2" d="M5,6.7l0,.63.37,0-.16.33.16-.33L5,7.33l.57,7.82,5.69,4.79V19l-.08-9.13h0V9.69Zm5.56,11.64L6.33,14.79l-.5-6.87,4.66,2.25Z" transform="translate(0 0)"/><path class="cls-2" d="M19.26,7.14l-.51.16L11.21,9.63v.06h0v.22h0L11.29,19v.9l7.65-4Zm-7.3,3,6.52-2-.26,7.32L12,18.72Z" transform="translate(0 0)"/><g class="cls-3"><path class="cls-2" d="M15,0H9.12A9.14,9.14,0,0,0,0,9.12v6a9.14,9.14,0,0,0,9.12,9.11H15a9.14,9.14,0,0,0,9.11-9.11v-6A9.14,9.14,0,0,0,15,0M9.12,23.28A8.14,8.14,0,0,1,1,15.16v-6A8.16,8.16,0,0,1,9.12,1H15a8.14,8.14,0,0,1,8.12,8.13v6A8.13,8.13,0,0,1,15,23.28Z" transform="translate(0 0)"/></g></g></g></svg>