<svg xmlns="http://www.w3.org/2000/svg" xmlns:xlink="http://www.w3.org/1999/xlink" viewBox="0 0 25.4 25.06"><defs><style>.cls-1,.cls-4{fill:none;}.cls-2{fill:gray;}.cls-3{clip-path:url(#clip-path);}.cls-4{stroke:gray;stroke-miterlimit:10;stroke-width:0.25px;}</style><clipPath id="clip-path" transform="translate(0 0)"><rect class="cls-1" width="25.4" height="25.06"/></clipPath></defs><title>Ресурс 1</title><g id="Слой_2" data-name="Слой 2"><g id="Слой_1-2" data-name="Слой 1"><path class="cls-2" d="M7.71,7.28H23.79V23.44H7.71ZM6.22,24.93H25.27V5.79h-19Z" transform="translate(0 0)"/><g class="cls-3"><path class="cls-4" d="M25.27,5.79h-19V24.93H25.27ZM7.71,7.28H23.79V23.44H7.71Z" transform="translate(0 0)"/></g><polygon class="cls-2" points="20.76 0.3 20.76 1.97 10.74 1.97 10.74 0.3 8.64 2.41 10.74 4.52 10.74 2.85 20.76 2.85 20.76 4.52 22.85 2.41 20.76 0.3"/><polygon class="cls-4" points="20.76 0.3 20.76 1.97 10.74 1.97 10.74 0.3 8.64 2.41 10.74 4.52 10.74 2.85 20.76 2.85 20.76 4.52 22.85 2.41 20.76 0.3"/><polygon class="cls-2" points="0.3 10.33 1.96 10.33 1.96 20.4 0.3 20.4 2.39 22.5 4.49 20.4 2.84 20.4 2.84 10.33 4.49 10.33 2.39 8.22 0.3 10.33"/><g class="cls-3"><polygon class="cls-4" points="2.39 8.22 0.3 10.33 1.96 10.33 1.96 20.4 0.3 20.4 2.39 22.5 4.49 20.4 2.84 20.4 2.84 10.33 4.49 10.33 2.39 8.22"/></g><polygon class="cls-2" points="16.14 11.3 12.96 16.05 9.78 11.3 9.78 18.4 10.84 18.4 10.84 14.79 12.96 17.96 15.07 14.79 15.07 18.4 16.14 18.4 16.14 11.3"/><polygon class="cls-4" points="16.14 11.3 12.96 16.05 9.78 11.3 9.78 18.4 10.84 18.4 10.84 14.79 12.96 17.96 15.07 14.79 15.07 18.4 16.14 18.4 16.14 11.3"/><g class="cls-3"><path class="cls-2" d="M19.88,11.59a1.73,1.73,0,0,0-.32,0,2,2,0,0,0-1.08.52,2.17,2.17,0,0,0-.59.88l.95.55a1.27,1.27,0,0,1,.36-.64,1,1,0,0,1,.53-.26h.15a.81.81,0,0,1,.7.34.63.63,0,0,1,.07.42,2.14,2.14,0,0,1-.36.76c-.7,1-1.26,1.69-2.51,3.35l-.66.86h4.75V17.32H19.28l1.86-2.49a2.66,2.66,0,0,0,.56-1.25,1.61,1.61,0,0,0-.21-1.13,1.84,1.84,0,0,0-1.61-.86" transform="translate(0 0)"/><path class="cls-4" d="M19.88,11.59a1.73,1.73,0,0,0-.32,0,2,2,0,0,0-1.08.52,2.17,2.17,0,0,0-.59.88l.95.55a1.27,1.27,0,0,1,.36-.64,1,1,0,0,1,.53-.26h.15a.81.81,0,0,1,.7.34.63.63,0,0,1,.07.42,2.14,2.14,0,0,1-.36.76c-.7,1-1.26,1.69-2.51,3.35l-.66.86h4.75V17.32H19.28l1.86-2.49a2.66,2.66,0,0,0,.56-1.25,1.61,1.61,0,0,0-.21-1.13,1.84,1.84,0,0,0-1.61-.86" transform="translate(0 0)"/></g></g></g></svg>