<svg width="93" height="30" viewBox="0 0 93 30" fill="none" xmlns="http://www.w3.org/2000/svg">
<g filter="url(#filter0_d)">
<path d="M2 28L11 16.5L15 20L2 28Z" fill="black"/>
<path d="M88 0H11V20H88V0Z" fill="black"/>
</g>
<path d="M30.13 5.2207V12.2207H34.13V14.0207H28.15V5.2207H30.13Z" fill="white"/>
<path d="M37.2201 5.2207H35.2301V14.0207H37.2201V5.2207Z" fill="white"/>
<path d="M40.8 5.2207L46.06 11.1407V5.2207H48.03V14.0207H46.14L40.88 8.0907V14.0207H38.92V5.2207H40.8Z" fill="white"/>
<path d="M56.9401 8.26069C56.622 7.7794 56.1829 7.39023 55.6668 7.13221C55.1508 6.8742 54.576 6.75642 54.0001 6.79069C53.6153 6.76 53.2284 6.81218 52.8655 6.94371C52.5025 7.07524 52.172 7.28307 51.8962 7.55317C51.6205 7.82327 51.4058 8.14937 51.2667 8.50948C51.1277 8.86959 51.0674 9.25533 51.0901 9.64069C51.0738 10.024 51.1385 10.4065 51.2799 10.7631C51.4213 11.1197 51.6363 11.4426 51.9109 11.7105C52.1855 11.9785 52.5134 12.1856 52.8734 12.3183C53.2334 12.451 53.6173 12.5063 54.0001 12.4807C54.5773 12.516 55.1534 12.3976 55.6699 12.1376C56.1864 11.8776 56.6247 11.4853 56.9401 11.0007L58.4801 11.9007C58.0285 12.6659 57.3734 13.2907 56.5878 13.7056C55.8021 14.1205 54.9167 14.3092 54.0301 14.2507C51.2101 14.2507 49.1101 12.4807 49.1101 9.64069C49.1101 6.80069 51.2601 5.03069 54.0301 5.03069C54.9167 4.97216 55.8021 5.16086 56.5878 5.57576C57.3734 5.99067 58.0285 6.6155 58.4801 7.38069L56.9401 8.26069Z" fill="white"/>
<path d="M63.7901 12.5407C64.3643 12.5348 64.924 12.3591 65.3986 12.0358C65.8731 11.7124 66.2415 11.2559 66.4571 10.7237C66.6728 10.1915 66.7261 9.60731 66.6105 9.04482C66.4948 8.48232 66.2153 7.96662 65.8072 7.56265C65.3991 7.15867 64.8805 6.88448 64.3169 6.77461C63.7532 6.66474 63.1697 6.72409 62.6397 6.9452C62.1097 7.1663 61.657 7.53927 61.3385 8.01715C61.0201 8.49503 60.8501 9.05644 60.8501 9.6307C60.8328 10.02 60.8972 10.4087 61.0392 10.7716C61.1812 11.1345 61.3977 11.4636 61.6747 11.7378C61.9516 12.012 62.283 12.225 62.6473 12.3633C63.0117 12.5016 63.401 12.562 63.7901 12.5407V12.5407ZM63.7901 14.2407C62.8916 14.1803 62.0304 13.8586 61.3123 13.3152C60.5942 12.7718 60.0505 12.0304 59.7482 11.1821C59.4459 10.3338 59.3981 9.4157 59.6106 8.54062C59.8232 7.66554 60.2869 6.87166 60.9446 6.25659C61.6024 5.64153 62.4255 5.23211 63.3129 5.07867C64.2003 4.92523 65.1131 5.03447 65.9392 5.39294C66.7653 5.75142 67.4686 6.34351 67.9627 7.09641C68.4568 7.8493 68.72 8.73017 68.7201 9.6307C68.713 10.2614 68.5782 10.8841 68.3238 11.4613C68.0694 12.0385 67.7007 12.5582 67.24 12.989C66.7793 13.4198 66.2361 13.7528 65.6432 13.9679C65.0502 14.1831 64.4199 14.2759 63.7901 14.2407" fill="white"/>
<path d="M72.4901 5.2207L75.5701 11.6007H75.6501L78.8701 5.2207H81.4101V14.0207H79.4601V7.8607H79.3601L76.3901 14.0207H74.7201L71.8501 7.8607H71.7601V14.0207H69.8401V5.2207H72.4901Z" fill="white"/>
<path d="M26.48 8.90068V14.0007H25.24L24.97 13.3207C24.0768 13.9502 23.002 14.2699 21.91 14.2307C19.14 14.2307 17 12.4607 17 9.62069C17 6.78069 19.14 5.01068 21.91 5.01068C22.7775 4.95301 23.6445 5.12957 24.4203 5.52189C25.1962 5.9142 25.8523 6.50784 26.32 7.24068L24.75 8.13068C24.4332 7.67067 23.999 7.30382 23.4926 7.06819C22.9862 6.83257 22.4259 6.73675 21.87 6.79068C21.4889 6.76788 21.1071 6.82325 20.7482 6.9534C20.3893 7.08355 20.0608 7.28573 19.7829 7.54751C19.505 7.80929 19.2835 8.12513 19.1322 8.47563C18.9808 8.82614 18.9027 9.20389 18.9027 9.58568C18.9027 9.96747 18.9808 10.3452 19.1322 10.6957C19.2835 11.0462 19.505 11.3621 19.7829 11.6239C20.0608 11.8856 20.3893 12.0878 20.7482 12.218C21.1071 12.3481 21.4889 12.4035 21.87 12.3807C22.8393 12.4554 23.8027 12.1746 24.58 11.5907V10.5907L22.34 10.5107V8.90068H26.48Z" fill="white"/>
<defs>
<filter id="filter0_d" x="2" y="0" width="87" height="29" filterUnits="userSpaceOnUse" color-interpolation-filters="sRGB">
<feFlood flood-opacity="0" result="BackgroundImageFix"/>
<feColorMatrix in="SourceAlpha" type="matrix" values="0 0 0 0 0 0 0 0 0 0 0 0 0 0 0 0 0 0 127 0"/>
<feOffset dx="1" dy="1"/>
<feColorMatrix type="matrix" values="0 0 0 0 0 0 0 0 0 0 0 0 0 0 0 0 0 0 0.25 0"/>
<feBlend mode="normal" in2="BackgroundImageFix" result="effect1_dropShadow"/>
<feBlend mode="normal" in="SourceGraphic" in2="effect1_dropShadow" result="shape"/>
</filter>
</defs>
</svg>
