<svg xmlns="http://www.w3.org/2000/svg" xmlns:xlink="http://www.w3.org/1999/xlink" viewBox="0 0 72.77 65.91"><defs><style>.cls-1,.cls-3,.cls-4{fill:none;}.cls-2{clip-path:url(#clip-path);}.cls-3,.cls-4{stroke:#000;}.cls-3{stroke-width:0.93px;}</style><clipPath id="clip-path" transform="translate(0)"><rect class="cls-1" width="72.78" height="65.9"/></clipPath></defs><title>Ресурс 1</title><g id="Слой_2" data-name="Слой 2"><g id="Слой_1-2" data-name="Слой 1"><g class="cls-2"><path d="M64,12V.28H65.7L69.41,6.2A32.64,32.64,0,0,1,71.48,10l0,0c-.14-1.56-.17-3-.17-4.81V.28h1.42V12H71.26L67.56,6A34,34,0,0,1,65.4,2.13l-.05,0c.09,1.48.1,2.89.1,4.83v5Z" transform="translate(0)"/><path d="M.4,63.83a5,5,0,0,0,2.67.77c1.54,0,2.44-.82,2.44-2s-.62-1.72-2.19-2.31C1.42,59.59.24,58.59.24,57c0-1.82,1.5-3.17,3.77-3.17a5.24,5.24,0,0,1,2.55.57l-.41,1.23A4.36,4.36,0,0,0,4,55c-1.58,0-2.19.95-2.19,1.75,0,1.09.71,1.63,2.31,2.26,2,.76,3,1.72,3,3.44S5.71,65.86,3,65.86a6,6,0,0,1-3-.76Z" transform="translate(0)"/><line class="cls-3" x1="4.33" y1="0.33" x2="69.57" y2="65.58"/></g><line class="cls-4" x1="58.11" y1="11.79" x2="15.79" y2="54.12"/><g class="cls-2"><path class="cls-3" d="M37,65.44A32.49,32.49,0,1,0,4.47,33,32.49,32.49,0,0,0,37,65.44Z" transform="translate(0)"/></g></g></g></svg>