<svg id="Слой_1" data-name="Слой 1" xmlns="http://www.w3.org/2000/svg" xmlns:xlink="http://www.w3.org/1999/xlink" viewBox="0 0 130 92"><defs><style>.cls-1,.cls-3{fill:none;}.cls-2{clip-path:url(#clip-path);}.cls-3{stroke:#262424;}.cls-4{fill:#fff;}</style><clipPath id="clip-path"><rect class="cls-1" width="130" height="92"/></clipPath></defs><title>logo</title><rect x="0.5" y="0.5" width="129" height="91"/><g class="cls-2"><rect class="cls-3" x="0.5" y="0.5" width="129" height="91"/></g><path class="cls-4" d="M27.14,78.78h75.75V48.31H27.14ZM105,80.89H25V46.2h80Z"/><polygon class="cls-4" points="45.95 57.43 45.95 64.43 49.95 64.43 49.95 66.23 43.97 66.23 43.97 57.43 45.95 57.43"/><rect class="cls-4" x="51.05" y="57.43" width="1.99" height="8.8"/><polygon class="cls-4" points="56.62 57.43 61.88 63.35 61.88 57.43 63.85 57.43 63.85 66.23 61.96 66.23 56.7 60.3 56.7 66.23 54.74 66.23 54.74 57.43 56.62 57.43"/><g class="cls-2"><path class="cls-4" d="M72.76,60.47A3.29,3.29,0,0,0,69.82,59a2.7,2.7,0,0,0-2.91,2.85,2.73,2.73,0,0,0,2.91,2.84,3.27,3.27,0,0,0,2.94-1.48l1.54.9a4.8,4.8,0,0,1-4.45,2.35c-2.82,0-4.92-1.77-4.92-4.61s2.15-4.61,4.92-4.61a4.8,4.8,0,0,1,4.45,2.35Z"/><path class="cls-4" d="M79.61,64.75a2.91,2.91,0,1,0-2.94-2.91,2.79,2.79,0,0,0,2.94,2.91m0,1.7a4.62,4.62,0,1,1,4.93-4.61,4.67,4.67,0,0,1-4.93,4.61"/></g><polygon class="cls-4" points="88.31 57.43 91.39 63.81 91.47 63.81 94.69 57.43 97.23 57.43 97.23 66.23 95.28 66.23 95.28 60.07 95.18 60.07 92.21 66.23 90.54 66.23 87.67 60.07 87.58 60.07 87.58 66.23 85.66 66.23 85.66 57.43 88.31 57.43"/><g class="cls-2"><path class="cls-4" d="M34.55,69.1V70h-.22l0-.12a1,1,0,0,1-.56.16.84.84,0,1,1,0-1.67.88.88,0,0,1,.8.4l-.28.17a.56.56,0,0,0-.52-.24.49.49,0,0,0-.53.51.48.48,0,0,0,.53.5.75.75,0,0,0,.49-.14v-.18H33.8v-.3Z"/></g><polygon class="cls-4" points="35.54 68.43 35.54 69.7 36.63 69.7 36.63 70.02 35.18 70.02 35.18 68.43 35.54 68.43"/><polygon class="cls-4" points="38.62 68.43 38.62 68.76 37.54 68.76 37.54 69.05 38.51 69.05 38.51 69.38 37.54 69.38 37.54 69.69 38.66 69.69 38.66 70.02 37.18 70.02 37.18 68.43 38.62 68.43"/><path class="cls-4" d="M39.82,69.47h.71l-.29-.72h-.12Zm.65-1L41.15,70h-.38l-.1-.24h-1l-.11.24H39.2l.69-1.59Z"/><polygon class="cls-4" points="42.05 68.43 43 69.5 43 68.43 43.35 68.43 43.35 70.02 43.01 70.02 42.06 68.95 42.06 70.02 41.71 70.02 41.71 68.43 42.05 68.43"/><rect class="cls-4" x="43.97" y="68.43" width="0.36" height="1.59"/><polygon class="cls-4" points="45.28 68.43 46.23 69.5 46.23 68.43 46.59 68.43 46.59 70.02 46.25 70.02 45.29 68.95 45.29 70.02 44.94 70.02 44.94 68.43 45.28 68.43"/><g class="cls-2"><path class="cls-4" d="M48.89,69.1V70h-.22l-.05-.12a1,1,0,0,1-.56.16.84.84,0,1,1,0-1.67.88.88,0,0,1,.8.4l-.29.17a.54.54,0,0,0-.52-.24.49.49,0,0,0-.52.51.48.48,0,0,0,.52.5.72.72,0,0,0,.49-.14v-.18h-.4v-.3Z"/></g><rect class="cls-4" x="50.67" y="68.43" width="0.36" height="1.59"/><polygon class="cls-4" points="51.98 68.43 52.93 69.5 52.93 68.43 53.29 68.43 53.29 70.02 52.95 70.02 51.99 68.95 51.99 70.02 51.64 70.02 51.64 68.43 51.98 68.43"/><polygon class="cls-4" points="54.24 68.43 54.77 69.7 54.85 69.7 55.37 68.43 55.76 68.43 55.06 70.02 54.54 70.02 53.84 68.43 54.24 68.43"/><polygon class="cls-4" points="57.76 68.43 57.76 68.76 56.67 68.76 56.67 69.05 57.65 69.05 57.65 69.38 56.67 69.38 56.67 69.69 57.8 69.69 57.8 70.02 56.31 70.02 56.31 68.43 57.76 68.43"/><g class="cls-2"><path class="cls-4" d="M59.76,68.9a1,1,0,0,0-.63-.19c-.31,0-.39.08-.39.17s.09.12.21.13l.48.06c.34,0,.55.18.55.47s-.35.52-.83.52a1.31,1.31,0,0,1-.82-.25l.17-.28a1.16,1.16,0,0,0,.69.22c.26,0,.44-.06.44-.2s-.05-.13-.18-.14l-.54-.06c-.32,0-.52-.17-.52-.46s.33-.5.74-.5a1.28,1.28,0,0,1,.8.24Z"/></g><polygon class="cls-4" points="62.13 68.43 62.13 68.75 61.48 68.75 61.48 70.02 61.12 70.02 61.12 68.75 60.47 68.75 60.47 68.43 62.13 68.43"/><polygon class="cls-4" points="63.16 68.43 63.72 69.58 63.73 69.58 64.31 68.43 64.77 68.43 64.77 70.02 64.42 70.02 64.42 68.91 64.41 68.91 63.87 70.02 63.56 70.02 63.05 68.91 63.03 68.91 63.03 70.02 62.68 70.02 62.68 68.43 63.16 68.43"/><polygon class="cls-4" points="66.83 68.43 66.83 68.76 65.75 68.76 65.75 69.05 66.72 69.05 66.72 69.38 65.75 69.38 65.75 69.69 66.87 69.69 66.87 70.02 65.39 70.02 65.39 68.43 66.83 68.43"/><polygon class="cls-4" points="67.8 68.43 68.76 69.5 68.76 68.43 69.11 68.43 69.11 70.02 68.77 70.02 67.82 68.95 67.82 70.02 67.47 70.02 67.47 68.43 67.8 68.43"/><polygon class="cls-4" points="71.32 68.43 71.32 68.75 70.68 68.75 70.68 70.02 70.32 70.02 70.32 68.75 69.67 68.75 69.67 68.43 71.32 68.43"/><g class="cls-2"><path class="cls-4" d="M74.42,69a.6.6,0,0,0-.53-.27.52.52,0,1,0,0,1,.59.59,0,0,0,.53-.26l.28.16a.88.88,0,0,1-.81.42.84.84,0,1,1,0-1.67.88.88,0,0,1,.81.43Z"/><path class="cls-4" d="M76.12,69.76a.53.53,0,1,0-.54-.53.51.51,0,0,0,.54.53m0,.3a.84.84,0,1,1,.89-.83.85.85,0,0,1-.89.83"/></g><polygon class="cls-4" points="78.08 68.43 78.63 69.58 78.65 69.58 79.23 68.43 79.69 68.43 79.69 70.02 79.34 70.02 79.34 68.91 79.32 68.91 78.78 70.02 78.48 70.02 77.96 68.91 77.94 68.91 77.94 70.02 77.59 70.02 77.59 68.43 78.08 68.43"/><g class="cls-2"><path class="cls-4" d="M80.66,69.7h.73a.17.17,0,0,0,.19-.17.17.17,0,0,0-.18-.17h-.74Zm0-.66h.68a.13.13,0,0,0,.13-.14.14.14,0,0,0-.16-.15h-.65Zm.67-.61a.44.44,0,0,1,.49.43.31.31,0,0,1-.13.27.41.41,0,0,1,.24.4.5.5,0,0,1-.53.49H80.3V68.43Z"/></g><rect class="cls-4" x="82.49" y="68.43" width="0.36" height="1.59"/><polygon class="cls-4" points="83.8 68.43 84.76 69.5 84.76 68.43 85.11 68.43 85.11 70.02 84.77 70.02 83.82 68.95 83.82 70.02 83.46 70.02 83.46 68.43 83.8 68.43"/><path class="cls-4" d="M86.29,69.47H87l-.29-.72h-.12Zm.65-1L87.62,70h-.38l-.1-.24h-1l-.11.24h-.38l.69-1.59Z"/><polygon class="cls-4" points="89.51 68.43 89.51 68.75 88.87 68.75 88.87 70.02 88.51 70.02 88.51 68.75 87.86 68.75 87.86 68.43 89.51 68.43"/><rect class="cls-4" x="90.07" y="68.43" width="0.36" height="1.59"/><g class="cls-2"><path class="cls-4" d="M91.91,69.76a.53.53,0,1,0-.53-.53.5.5,0,0,0,.53.53m0,.3a.84.84,0,1,1,.89-.83.84.84,0,0,1-.89.83"/></g><polygon class="cls-4" points="93.73 68.43 94.68 69.5 94.68 68.43 95.04 68.43 95.04 70.02 94.7 70.02 93.75 68.95 93.75 70.02 93.39 70.02 93.39 68.43 93.73 68.43"/><g class="cls-2"><path class="cls-4" d="M97.05,68.9a1,1,0,0,0-.63-.19c-.31,0-.39.08-.39.17s.09.12.21.13l.48.06c.34,0,.55.18.55.47s-.35.52-.83.52a1.31,1.31,0,0,1-.82-.25l.17-.28a1.16,1.16,0,0,0,.69.22c.25,0,.44-.06.44-.2s0-.13-.18-.14l-.54-.06c-.32,0-.52-.17-.52-.46s.33-.5.74-.5a1.3,1.3,0,0,1,.8.24Z"/><path class="cls-4" d="M42.3,61.11v5.1H41.06l-.27-.68a5,5,0,0,1-3.06.91c-2.77,0-4.91-1.77-4.91-4.61s2.14-4.61,4.91-4.61a4.85,4.85,0,0,1,4.41,2.23l-1.57.89A3.13,3.13,0,0,0,37.69,59a2.8,2.8,0,1,0,0,5.59,4,4,0,0,0,2.71-.79v-1l-2.24-.08V61.11Z"/></g></svg>