<svg id="Слой_1" data-name="Слой 1" xmlns="http://www.w3.org/2000/svg" xmlns:xlink="http://www.w3.org/1999/xlink" viewBox="0 0 241.67 48.15"><defs><style>.cls-1{fill:none;}.cls-2{clip-path:url(#clip-path);}</style><clipPath id="clip-path" transform="translate(-29.32 -41.32)"><rect class="cls-1" width="300" height="130.07"/></clipPath></defs><title>logo</title><polygon points="49.26 0.78 49.26 27.02 64.25 27.02 64.25 33.76 41.81 33.76 41.81 0.78 49.26 0.78"/><rect x="68.39" y="0.78" width="7.45" height="32.98"/><polygon points="89.24 0.78 108.98 22.96 108.98 0.78 116.37 0.78 116.37 33.76 109.27 33.76 89.54 11.52 89.54 33.76 82.2 33.76 82.2 0.78 89.24 0.78"/><g class="cls-2"><path d="M179.09,53.49c-2.5-3.57-5.78-5.54-11-5.54-6.62,0-10.91,4.18-10.91,10.68s4.48,10.67,10.91,10.67c5.25,0,8.53-2,11-5.56l5.79,3.36c-3.41,5.78-9,8.81-16.7,8.81-10.55,0-18.43-6.61-18.43-17.28s8.06-17.29,18.43-17.29c7.69,0,13.29,3,16.7,8.82Z" transform="translate(-29.32 -41.32)"/><path d="M204.81,69.53c6.19,0,11-4.11,11-10.9s-4.83-10.92-11-10.92-11,4.11-11,10.92,4.82,10.9,11,10.9m0,6.38c-10,0-18.49-6.92-18.49-17.28s8.47-17.29,18.49-17.29,18.48,6.91,18.48,17.29-8.47,17.28-18.48,17.28" transform="translate(-29.32 -41.32)"/></g><polygon points="208.1 0.78 219.66 24.7 219.96 24.7 232 0.78 241.55 0.78 241.55 33.76 234.21 33.76 234.21 10.68 233.85 10.68 222.7 33.76 216.45 33.76 205.71 10.68 205.36 10.68 205.36 33.76 198.14 33.76 198.14 0.78 208.1 0.78"/><g class="cls-2"><path d="M35.81,85.86v3.46H35l-.18-.46a3.46,3.46,0,0,1-2.09.61,3.14,3.14,0,1,1,0-6.26,3.29,3.29,0,0,1,3,1.5l-1.07.62a2.11,2.11,0,0,0-2-.89,1.9,1.9,0,1,0,0,3.8,2.75,2.75,0,0,0,1.84-.53V87L33,87V85.86Z" transform="translate(-29.32 -41.32)"/></g><polygon points="10.19 42.03 10.19 46.77 14.3 46.77 14.3 47.99 8.84 47.99 8.84 42.03 10.19 42.03"/><polygon points="21.77 42.03 21.77 43.24 17.7 43.24 17.7 44.34 21.36 44.34 21.36 45.56 17.7 45.56 17.7 46.76 21.91 46.76 21.91 47.99 16.35 47.99 16.35 42.03 21.77 42.03"/><path d="M55.57,87.23h2.66l-1.09-2.68h-.46ZM58,83.35l2.53,6H59.14l-.39-.91H55.07l-.39.91H53.24l2.6-6Z" transform="translate(-29.32 -41.32)"/><polygon points="34.6 42.03 38.17 46.04 38.17 42.03 39.51 42.03 39.51 47.99 38.23 47.99 34.65 43.97 34.65 47.99 33.33 47.99 33.33 42.03 34.6 42.03"/><rect x="41.81" y="42.03" width="1.35" height="5.96"/><polygon points="46.73 42.03 50.3 46.04 50.3 42.03 51.63 42.03 51.63 47.99 50.35 47.99 46.78 43.97 46.78 47.99 45.45 47.99 45.45 42.03 46.73 42.03"/><g class="cls-2"><path d="M89.58,85.86v3.46h-.83l-.19-.46a3.47,3.47,0,0,1-2.08.61,3.14,3.14,0,1,1,0-6.26,3.33,3.33,0,0,1,3,1.5l-1.07.62a2.13,2.13,0,0,0-2-.89,1.9,1.9,0,1,0,0,3.8,2.73,2.73,0,0,0,1.84-.53V87l-1.52,0V85.86Z" transform="translate(-29.32 -41.32)"/></g><rect x="66.94" y="42.03" width="1.35" height="5.96"/><polygon points="71.86 42.03 75.43 46.04 75.43 42.03 76.77 42.03 76.77 47.99 75.48 47.99 71.91 43.97 71.91 47.99 70.59 47.99 70.59 42.03 71.86 42.03"/><polygon points="80.35 42.03 82.31 46.79 82.6 46.79 84.56 42.03 86.03 42.03 83.42 47.99 81.47 47.99 78.85 42.03 80.35 42.03"/><polygon points="93.53 42.03 93.53 43.24 89.46 43.24 89.46 44.34 93.12 44.34 93.12 45.56 89.46 45.56 89.46 46.76 93.68 46.76 93.68 47.99 88.11 47.99 88.11 42.03 93.53 42.03"/><g class="cls-2"><path d="M130.35,85.09a3.83,3.83,0,0,0-2.37-.68c-1.16,0-1.44.29-1.44.64s.31.42.78.48l1.78.21c1.28.16,2.07.69,2.07,1.79,0,1.33-1.31,1.94-3.1,1.94a4.8,4.8,0,0,1-3.09-1l.64-1.05a4.31,4.31,0,0,0,2.6.83c.95,0,1.64-.22,1.64-.74,0-.33-.17-.49-.67-.54l-2-.23c-1.22-.13-2-.61-2-1.72,0-1.27,1.25-1.85,2.77-1.85a4.72,4.72,0,0,1,3,.89Z" transform="translate(-29.32 -41.32)"/></g><polygon points="109.9 42.03 109.9 43.24 107.48 43.24 107.48 47.99 106.13 47.99 106.13 43.24 103.71 43.24 103.71 42.03 109.9 42.03"/><polygon points="113.79 42.03 115.88 46.35 115.94 46.35 118.11 42.03 119.83 42.03 119.83 47.99 118.52 47.99 118.52 43.82 118.45 43.82 116.43 47.99 115.3 47.99 113.36 43.82 113.29 43.82 113.29 47.99 111.99 47.99 111.99 42.03 113.79 42.03"/><polygon points="127.55 42.03 127.55 43.24 123.49 43.24 123.49 44.34 127.15 44.34 127.15 45.56 123.49 45.56 123.49 46.76 127.7 46.76 127.7 47.99 122.13 47.99 122.13 42.03 127.55 42.03"/><polygon points="131.2 42.03 134.76 46.04 134.76 42.03 136.11 42.03 136.11 47.99 134.82 47.99 131.25 43.97 131.25 47.99 129.93 47.99 129.93 42.03 131.2 42.03"/><polygon points="144.39 42.03 144.39 43.24 141.97 43.24 141.97 47.99 140.62 47.99 140.62 43.24 138.19 43.24 138.19 42.03 144.39 42.03"/><g class="cls-2"><path d="M185.31,85.42a2.19,2.19,0,0,0-2-1,1.93,1.93,0,1,0,0,3.85,2.19,2.19,0,0,0,2-1l1.05.6a3.24,3.24,0,0,1-3,1.6,3.14,3.14,0,1,1,0-6.26,3.24,3.24,0,0,1,3,1.6Z" transform="translate(-29.32 -41.32)"/><path d="M191.69,88.32a2,2,0,1,0-2-2,1.9,1.9,0,0,0,2,2m0,1.15A3.14,3.14,0,1,1,195,86.34a3.17,3.17,0,0,1-3.33,3.13" transform="translate(-29.32 -41.32)"/></g><polygon points="169.72 42.03 171.81 46.35 171.87 46.35 174.04 42.03 175.77 42.03 175.77 47.99 174.44 47.99 174.44 43.82 174.38 43.82 172.37 47.99 171.23 47.99 169.28 43.82 169.22 43.82 169.22 47.99 167.92 47.99 167.92 42.03 169.72 42.03"/><g class="cls-2"><path d="M208.73,88.1h2.75a.63.63,0,0,0,.68-.64.61.61,0,0,0-.65-.64h-2.78Zm0-2.45h2.54a.55.55,0,0,0-.1-1.09h-2.44Zm2.49-2.3a1.65,1.65,0,0,1,1.85,1.6,1.18,1.18,0,0,1-.46,1,1.55,1.55,0,0,1,.87,1.5,1.89,1.89,0,0,1-2,1.86h-4.14v-6Z" transform="translate(-29.32 -41.32)"/></g><rect x="186.28" y="42.03" width="1.34" height="5.96"/><polygon points="191.19 42.03 194.77 46.04 194.77 42.03 196.1 42.03 196.1 47.99 194.81 47.99 191.25 43.97 191.25 47.99 189.92 47.99 189.92 42.03 191.19 42.03"/><path d="M229.83,87.23h2.66l-1.08-2.68H231Zm2.46-3.88,2.54,6H233.4l-.38-.91h-3.68l-.39.91h-1.44l2.59-6Z" transform="translate(-29.32 -41.32)"/><polygon points="212.6 42.03 212.6 43.24 210.18 43.24 210.18 47.99 208.83 47.99 208.83 43.24 206.41 43.24 206.41 42.03 212.6 42.03"/><rect x="214.69" y="42.03" width="1.35" height="5.96"/><g class="cls-2"><path d="M250.91,88.32a2,2,0,1,0,0-3.95,2,2,0,1,0,0,3.95m0,1.15a3.14,3.14,0,1,1,3.34-3.13,3.17,3.17,0,0,1-3.34,3.13" transform="translate(-29.32 -41.32)"/></g><polygon points="228.42 42.03 231.99 46.04 231.99 42.03 233.32 42.03 233.32 47.99 232.04 47.99 228.48 43.97 228.48 47.99 227.15 47.99 227.15 42.03 228.42 42.03"/><g class="cls-2"><path d="M270.18,85.09a3.85,3.85,0,0,0-2.37-.68c-1.15,0-1.44.29-1.44.64s.32.42.77.48l1.8.21c1.27.16,2.05.69,2.05,1.79,0,1.33-1.3,1.94-3.09,1.94a4.82,4.82,0,0,1-3.09-1l.64-1.05a4.32,4.32,0,0,0,2.61.83c.94,0,1.63-.22,1.63-.74,0-.33-.17-.49-.68-.54l-2-.23c-1.23-.13-2-.61-2-1.72,0-1.27,1.25-1.85,2.77-1.85a4.77,4.77,0,0,1,3,.89Z" transform="translate(-29.32 -41.32)"/><path d="M64.88,55.91V75H60.23l-1-2.55a18.7,18.7,0,0,1-11.5,3.39c-10.36,0-18.4-6.61-18.4-17.28s8-17.27,18.4-17.27c7.63,0,12.81,2.74,16.56,8.34L58.39,53C55.77,49.6,53,48.11,47.61,48.11c-6.62,0-10.91,4-10.91,10.48S41,69.08,47.61,69.08c4.7,0,7.44-.89,10.13-3V62.35l-8.41-.3V55.91Z" transform="translate(-29.32 -41.32)"/></g></svg>