<svg id="Слой_1" data-name="Слой 1" xmlns="http://www.w3.org/2000/svg" xmlns:xlink="http://www.w3.org/1999/xlink" viewBox="0 0 300 130.07"><defs><style>.cls-1{fill:none;}.cls-2{fill:#262424;}.cls-3{clip-path:url(#clip-path);}</style><clipPath id="clip-path" transform="translate(0 0)"><rect class="cls-1" width="300" height="130.07"/></clipPath></defs><title>logo</title><path class="cls-2" d="M8,9.09H292.1v113H8ZM0,0V130l300,0V0Z" transform="translate(0 0)"/><polygon class="cls-2" points="78.58 42.11 78.58 68.35 93.57 68.35 93.57 75.08 71.13 75.08 71.13 42.11 78.58 42.11"/><rect class="cls-2" x="97.7" y="42.11" width="7.45" height="32.98"/><polygon class="cls-2" points="118.56 42.11 138.3 64.29 138.3 42.11 145.69 42.11 145.69 75.08 138.59 75.08 118.86 52.84 118.86 75.08 111.52 75.08 111.52 42.11 118.56 42.11"/><g class="cls-3"><path class="cls-2" d="M179.09,53.49c-2.5-3.57-5.78-5.54-11-5.54-6.62,0-10.91,4.18-10.91,10.68s4.48,10.67,10.91,10.67c5.25,0,8.53-2,11-5.56l5.79,3.36c-3.41,5.78-9,8.81-16.7,8.81-10.55,0-18.43-6.61-18.43-17.28s8.06-17.29,18.43-17.29c7.69,0,13.29,3,16.7,8.82Z" transform="translate(0 0)"/><path class="cls-2" d="M204.81,69.53c6.19,0,11-4.11,11-10.9s-4.83-10.92-11-10.92-11,4.11-11,10.92,4.82,10.9,11,10.9m0,6.38c-10,0-18.49-6.92-18.49-17.28s8.47-17.29,18.49-17.29,18.48,6.91,18.48,17.29-8.47,17.28-18.48,17.28" transform="translate(0 0)"/></g><polygon class="cls-2" points="237.42 42.11 248.98 66.03 249.28 66.03 261.32 42.11 270.87 42.11 270.87 75.08 263.53 75.08 263.53 52.01 263.17 52.01 252.02 75.08 245.77 75.08 235.03 52.01 234.68 52.01 234.68 75.08 227.46 75.08 227.46 42.11 237.42 42.11"/><g class="cls-3"><path class="cls-2" d="M35.81,85.86v3.46H35l-.18-.46a3.46,3.46,0,0,1-2.09.61,3.14,3.14,0,1,1,0-6.26,3.29,3.29,0,0,1,3,1.5l-1.07.62a2.11,2.11,0,0,0-2-.89,1.9,1.9,0,1,0,0,3.8,2.75,2.75,0,0,0,1.84-.53V87L33,87V85.86Z" transform="translate(0 0)"/></g><polygon class="cls-2" points="39.51 83.36 39.51 88.1 43.62 88.1 43.62 89.32 38.16 89.32 38.16 83.36 39.51 83.36"/><polygon class="cls-2" points="51.09 83.36 51.09 84.57 47.02 84.57 47.02 85.67 50.67 85.67 50.67 86.89 47.02 86.89 47.02 88.08 51.23 88.08 51.23 89.32 45.67 89.32 45.67 83.36 51.09 83.36"/><path class="cls-2" d="M55.57,87.23h2.66l-1.09-2.68h-.46ZM58,83.35l2.53,6H59.14l-.39-.91H55.07l-.39.91H53.24l2.6-6Z" transform="translate(0 0)"/><polygon class="cls-2" points="63.92 83.36 67.49 87.37 67.49 83.36 68.83 83.36 68.83 89.32 67.54 89.32 63.97 85.3 63.97 89.32 62.65 89.32 62.65 83.36 63.92 83.36"/><rect class="cls-2" x="71.13" y="83.36" width="1.35" height="5.96"/><polygon class="cls-2" points="76.05 83.36 79.61 87.37 79.61 83.36 80.95 83.36 80.95 89.32 79.67 89.32 76.1 85.3 76.1 89.32 74.77 89.32 74.77 83.36 76.05 83.36"/><g class="cls-3"><path class="cls-2" d="M89.58,85.86v3.46h-.83l-.19-.46a3.47,3.47,0,0,1-2.08.61,3.14,3.14,0,1,1,0-6.26,3.33,3.33,0,0,1,3,1.5l-1.07.62a2.13,2.13,0,0,0-2-.89,1.9,1.9,0,1,0,0,3.8,2.73,2.73,0,0,0,1.84-.53V87l-1.52,0V85.86Z" transform="translate(0 0)"/></g><rect class="cls-2" x="96.26" y="83.36" width="1.35" height="5.96"/><polygon class="cls-2" points="101.18 83.36 104.75 87.37 104.75 83.36 106.09 83.36 106.09 89.32 104.8 89.32 101.23 85.3 101.23 89.32 99.91 89.32 99.91 83.36 101.18 83.36"/><polygon class="cls-2" points="109.67 83.36 111.63 88.11 111.92 88.11 113.88 83.36 115.35 83.36 112.74 89.32 110.79 89.32 108.17 83.36 109.67 83.36"/><polygon class="cls-2" points="122.85 83.36 122.85 84.57 118.78 84.57 118.78 85.67 122.44 85.67 122.44 86.89 118.78 86.89 118.78 88.08 123 88.08 123 89.32 117.43 89.32 117.43 83.36 122.85 83.36"/><g class="cls-3"><path class="cls-2" d="M130.35,85.09a3.83,3.83,0,0,0-2.37-.68c-1.16,0-1.44.29-1.44.64s.31.42.78.48l1.78.21c1.28.16,2.07.69,2.07,1.79,0,1.33-1.31,1.94-3.1,1.94a4.8,4.8,0,0,1-3.09-1l.64-1.05a4.31,4.31,0,0,0,2.6.83c.95,0,1.64-.22,1.64-.74,0-.33-.17-.49-.67-.54l-2-.23c-1.22-.13-2-.61-2-1.72,0-1.27,1.25-1.85,2.77-1.85a4.72,4.72,0,0,1,3,.89Z" transform="translate(0 0)"/></g><polygon class="cls-2" points="139.22 83.36 139.22 84.56 136.8 84.56 136.8 89.32 135.45 89.32 135.45 84.56 133.03 84.56 133.03 83.36 139.22 83.36"/><polygon class="cls-2" points="143.11 83.36 145.2 87.68 145.25 87.68 147.43 83.36 149.15 83.36 149.15 89.32 147.83 89.32 147.83 85.14 147.77 85.14 145.75 89.32 144.62 89.32 142.68 85.14 142.61 85.14 142.61 89.32 141.31 89.32 141.31 83.36 143.11 83.36"/><polygon class="cls-2" points="156.87 83.36 156.87 84.57 152.81 84.57 152.81 85.67 156.47 85.67 156.47 86.89 152.81 86.89 152.81 88.08 157.02 88.08 157.02 89.32 151.45 89.32 151.45 83.36 156.87 83.36"/><polygon class="cls-2" points="160.51 83.36 164.08 87.37 164.08 83.36 165.43 83.36 165.43 89.32 164.14 89.32 160.57 85.3 160.57 89.32 159.25 89.32 159.25 83.36 160.51 83.36"/><polygon class="cls-2" points="173.71 83.36 173.71 84.56 171.28 84.56 171.28 89.32 169.93 89.32 169.93 84.56 167.51 84.56 167.51 83.36 173.71 83.36"/><g class="cls-3"><path class="cls-2" d="M185.31,85.42a2.19,2.19,0,0,0-2-1,1.93,1.93,0,1,0,0,3.85,2.19,2.19,0,0,0,2-1l1.05.6a3.24,3.24,0,0,1-3,1.6,3.14,3.14,0,1,1,0-6.26,3.24,3.24,0,0,1,3,1.6Z" transform="translate(0 0)"/><path class="cls-2" d="M191.69,88.32a2,2,0,1,0-2-2,1.9,1.9,0,0,0,2,2m0,1.15A3.14,3.14,0,1,1,195,86.34a3.17,3.17,0,0,1-3.33,3.13" transform="translate(0 0)"/></g><polygon class="cls-2" points="199.04 83.36 201.13 87.68 201.18 87.68 203.36 83.36 205.09 83.36 205.09 89.32 203.76 89.32 203.76 85.14 203.7 85.14 201.68 89.32 200.55 89.32 198.6 85.14 198.54 85.14 198.54 89.32 197.24 89.32 197.24 83.36 199.04 83.36"/><g class="cls-3"><path class="cls-2" d="M208.73,88.1h2.75a.63.63,0,0,0,.68-.64.61.61,0,0,0-.65-.64h-2.78Zm0-2.45h2.54a.55.55,0,0,0-.1-1.09h-2.44Zm2.49-2.3a1.65,1.65,0,0,1,1.85,1.6,1.18,1.18,0,0,1-.46,1,1.55,1.55,0,0,1,.87,1.5,1.89,1.89,0,0,1-2,1.86h-4.14v-6Z" transform="translate(0 0)"/></g><rect class="cls-2" x="215.6" y="83.36" width="1.34" height="5.96"/><polygon class="cls-2" points="220.51 83.36 224.09 87.37 224.09 83.36 225.42 83.36 225.42 89.32 224.13 89.32 220.57 85.3 220.57 89.32 219.24 89.32 219.24 83.36 220.51 83.36"/><path class="cls-2" d="M229.83,87.23h2.66l-1.08-2.68H231Zm2.46-3.88,2.54,6H233.4l-.38-.91h-3.68l-.39.91h-1.44l2.59-6Z" transform="translate(0 0)"/><polygon class="cls-2" points="241.92 83.36 241.92 84.56 239.5 84.56 239.5 89.32 238.15 89.32 238.15 84.56 235.73 84.56 235.73 83.36 241.92 83.36"/><rect class="cls-2" x="244.01" y="83.36" width="1.35" height="5.96"/><g class="cls-3"><path class="cls-2" d="M250.91,88.32a2,2,0,1,0,0-3.95,2,2,0,1,0,0,3.95m0,1.15a3.14,3.14,0,1,1,3.34-3.13,3.17,3.17,0,0,1-3.34,3.13" transform="translate(0 0)"/></g><polygon class="cls-2" points="257.74 83.36 261.31 87.37 261.31 83.36 262.64 83.36 262.64 89.32 261.36 89.32 257.8 85.3 257.8 89.32 256.47 89.32 256.47 83.36 257.74 83.36"/><g class="cls-3"><path class="cls-2" d="M270.18,85.09a3.85,3.85,0,0,0-2.37-.68c-1.15,0-1.44.29-1.44.64s.32.42.77.48l1.8.21c1.27.16,2.05.69,2.05,1.79,0,1.33-1.3,1.94-3.09,1.94a4.82,4.82,0,0,1-3.09-1l.64-1.05a4.32,4.32,0,0,0,2.61.83c.94,0,1.63-.22,1.63-.74,0-.33-.17-.49-.68-.54l-2-.23c-1.23-.13-2-.61-2-1.72,0-1.27,1.25-1.85,2.77-1.85a4.77,4.77,0,0,1,3,.89Z" transform="translate(0 0)"/><path class="cls-2" d="M64.88,55.91V75H60.23l-1-2.55a18.7,18.7,0,0,1-11.5,3.39c-10.36,0-18.4-6.61-18.4-17.28s8-17.27,18.4-17.27c7.63,0,12.81,2.74,16.56,8.34L58.39,53C55.77,49.6,53,48.11,47.61,48.11c-6.62,0-10.91,4-10.91,10.48S41,69.08,47.61,69.08c4.7,0,7.44-.89,10.13-3V62.35l-8.41-.3V55.91Z" transform="translate(0 0)"/></g></svg>