<svg xmlns="http://www.w3.org/2000/svg" viewBox="0 0 42.34 42.34"><defs><style>.cls-1{fill:#fff;}</style></defs><title>Ресурс 5</title><g id="Слой_2" data-name="Слой 2"><g id="Слой_1-2" data-name="Слой 1"><rect width="42.34" height="42.34"/><path class="cls-1" d="M30.49,25.47a5,5,0,0,1-5,5h-8.6a5,5,0,0,1-5-5v-8.6a5,5,0,0,1,5-5h8.6a5,5,0,0,1,5,5Zm-5-15.77h-8.6A7.17,7.17,0,0,0,9.7,16.87v8.6a7.17,7.17,0,0,0,7.17,7.17h8.6a7.17,7.17,0,0,0,7.17-7.17v-8.6A7.17,7.17,0,0,0,25.47,9.7"/><path class="cls-1" d="M21,24.84a3.58,3.58,0,1,1,3.58-3.58A3.58,3.58,0,0,1,21,24.84m0-9.31a5.73,5.73,0,1,0,5.73,5.73A5.73,5.73,0,0,0,21,15.53"/><path class="cls-1" d="M27.16,14.33a.77.77,0,0,1,.76.77.77.77,0,0,1-1.53,0,.77.77,0,0,1,.77-.77"/></g></g></svg>