<svg xmlns="http://www.w3.org/2000/svg" xmlns:xlink="http://www.w3.org/1999/xlink" viewBox="0 0 27.23 23.87"><defs><style>.cls-1,.cls-4{fill:none;}.cls-2{clip-path:url(#clip-path);}.cls-3{fill:gray;}.cls-4{stroke:gray;stroke-miterlimit:10;stroke-width:0.5px;}</style><clipPath id="clip-path" transform="translate(0 0)"><rect class="cls-1" width="27.23" height="23.87"/></clipPath></defs><title>Ресурс 1</title><g id="Слой_2" data-name="Слой 2"><g id="Слой_1-2" data-name="Слой 1"><g class="cls-2"><path class="cls-3" d="M19.85,18.42H7.39A.4.4,0,0,1,7,18V11.44A3.34,3.34,0,0,0,3.65,8.1a2.59,2.59,0,0,0-2.59,2.59,2,2,0,0,0,2,2,1.52,1.52,0,0,0,1.51-1.51A1.14,1.14,0,0,0,3.43,10a.41.41,0,0,1,0-.81,1.94,1.94,0,0,1,1.94,1.94,2.32,2.32,0,0,1-2.32,2.32,2.81,2.81,0,0,1-2.8-2.8,3.4,3.4,0,0,1,3.4-3.4,4.15,4.15,0,0,1,4.14,4.15v6.17H19.44V11.44a4.15,4.15,0,0,1,4.14-4.15,3.4,3.4,0,0,1,3.4,3.4,2.81,2.81,0,0,1-2.8,2.8,2.32,2.32,0,0,1-2.32-2.32A1.94,1.94,0,0,1,23.8,9.23a.41.41,0,0,1,0,.81,1.14,1.14,0,0,0-1.13,1.13,1.52,1.52,0,0,0,1.51,1.51,2,2,0,0,0,2-2A2.59,2.59,0,0,0,23.58,8.1a3.34,3.34,0,0,0-3.33,3.34V18a.4.4,0,0,1-.4.4" transform="translate(0 0)"/><path class="cls-4" d="M19.85,18.42H7.39A.4.4,0,0,1,7,18V11.44A3.34,3.34,0,0,0,3.65,8.1a2.59,2.59,0,0,0-2.59,2.59,2,2,0,0,0,2,2,1.52,1.52,0,0,0,1.51-1.51A1.14,1.14,0,0,0,3.43,10a.41.41,0,0,1,0-.81,1.94,1.94,0,0,1,1.94,1.94,2.32,2.32,0,0,1-2.32,2.32,2.81,2.81,0,0,1-2.8-2.8,3.4,3.4,0,0,1,3.4-3.4,4.15,4.15,0,0,1,4.14,4.15v6.17H19.44V11.44a4.15,4.15,0,0,1,4.14-4.15,3.4,3.4,0,0,1,3.4,3.4,2.81,2.81,0,0,1-2.8,2.8,2.32,2.32,0,0,1-2.32-2.32A1.94,1.94,0,0,1,23.8,9.23a.41.41,0,0,1,0,.81,1.14,1.14,0,0,0-1.13,1.13,1.52,1.52,0,0,0,1.51,1.51,2,2,0,0,0,2-2A2.59,2.59,0,0,0,23.58,8.1a3.34,3.34,0,0,0-3.33,3.34V18A.4.4,0,0,1,19.85,18.42Z" transform="translate(0 0)"/><path class="cls-3" d="M23,22.31H4.32a1.68,1.68,0,0,1-1.68-1.67V13.08a.41.41,0,0,1,.41-.4.4.4,0,0,1,.4.4v7.56a.87.87,0,0,0,.87.86H23a.87.87,0,0,0,.87-.86V13.08a.4.4,0,0,1,.4-.4.41.41,0,0,1,.41.4v7.56A1.68,1.68,0,0,1,23,22.31" transform="translate(0 0)"/><path class="cls-4" d="M23,22.31H4.32a1.68,1.68,0,0,1-1.68-1.67V13.08a.41.41,0,0,1,.41-.4.4.4,0,0,1,.4.4v7.56a.87.87,0,0,0,.87.86H23a.87.87,0,0,0,.87-.86V13.08a.4.4,0,0,1,.4-.4.41.41,0,0,1,.41.4v7.56A1.68,1.68,0,0,1,23,22.31Z" transform="translate(0 0)"/><path class="cls-3" d="M19.85,15H7.39a.41.41,0,1,1,0-.81H19.85a.41.41,0,0,1,0,.81" transform="translate(0 0)"/><path class="cls-4" d="M19.85,15H7.39a.41.41,0,1,1,0-.81H19.85a.41.41,0,0,1,0,.81Z" transform="translate(0 0)"/><path class="cls-3" d="M7.39,23.62a.4.4,0,0,1-.41-.4v-1a.41.41,0,0,1,.81,0v1a.4.4,0,0,1-.4.4" transform="translate(0 0)"/><path class="cls-4" d="M7.39,23.62a.4.4,0,0,1-.41-.4v-1a.41.41,0,0,1,.81,0v1A.4.4,0,0,1,7.39,23.62Z" transform="translate(0 0)"/><path class="cls-3" d="M19.85,23.62a.4.4,0,0,1-.41-.4v-1a.41.41,0,0,1,.81,0v1a.4.4,0,0,1-.4.4" transform="translate(0 0)"/><path class="cls-4" d="M19.85,23.62a.4.4,0,0,1-.41-.4v-1a.41.41,0,0,1,.81,0v1A.4.4,0,0,1,19.85,23.62Z" transform="translate(0 0)"/><path class="cls-3" d="M22.58,8.1a.4.4,0,0,1-.41-.4V5.06a4,4,0,0,0-4-4h-9a4,4,0,0,0-4,4V7.7a.41.41,0,0,1-.41.4.4.4,0,0,1-.4-.4V5.06A4.81,4.81,0,0,1,9.14.25h9A4.82,4.82,0,0,1,23,5.06V7.7a.4.4,0,0,1-.4.4" transform="translate(0 0)"/><path class="cls-4" d="M22.58,8.1a.4.4,0,0,1-.41-.4V5.06a4,4,0,0,0-4-4h-9a4,4,0,0,0-4,4V7.7a.41.41,0,0,1-.41.4.4.4,0,0,1-.4-.4V5.06A4.81,4.81,0,0,1,9.14.25h9A4.82,4.82,0,0,1,23,5.06V7.7A.4.4,0,0,1,22.58,8.1Z" transform="translate(0 0)"/></g></g></g></svg>