<svg xmlns="http://www.w3.org/2000/svg" viewBox="0 0 42.34 42.34"><title>Ресурс 4</title><g id="Слой_2" data-name="Слой 2"><g id="Слой_1-2" data-name="Слой 1"><path d="M31.74,23.43a37.26,37.26,0,0,1,2.87,2.89,8.27,8.27,0,0,1,1,1.47c.4.77,0,1.61-.65,1.66H30.72A3.29,3.29,0,0,1,28,28.34c-.58-.6-1.14-1.24-1.7-1.86a4.18,4.18,0,0,0-.77-.69.89.89,0,0,0-1.42.35,4.43,4.43,0,0,0-.45,2c-.05,1-.35,1.27-1.36,1.32a10.92,10.92,0,0,1-6.11-1.32,13.46,13.46,0,0,1-4.11-3.84,52,52,0,0,1-5.42-9.65c-.34-.76-.09-1.17.75-1.19,1.39,0,2.79,0,4.18,0a1.24,1.24,0,0,1,1.16.87,26.06,26.06,0,0,0,2.83,5.25,4.64,4.64,0,0,0,1.07,1.18c.5.34.88.23,1.11-.33a3.44,3.44,0,0,0,.24-1.1,16.62,16.62,0,0,0-.06-3.86A1.62,1.62,0,0,0,16.57,14c-.41-.08-.35-.23-.16-.46a1.56,1.56,0,0,1,1.32-.65h4.82c.76.14.93.49,1,1.25v5.36c0,.3.15,1.18.68,1.37s.71-.2,1-.47A16.43,16.43,0,0,0,28,16.21c.33-.66.61-1.34.88-2a1,1,0,0,1,1.09-.74h4.65a2.75,2.75,0,0,1,.41,0c.78.14,1,.48.75,1.24a11.59,11.59,0,0,1-1.84,3.2c-.78,1.07-1.6,2.11-2.37,3.19s-.65,1.48.22,2.34M0,42.34H42.34V0H0Z"/></g></g></svg>