<svg id="Слой_1" data-name="Слой 1" xmlns="http://www.w3.org/2000/svg" xmlns:xlink="http://www.w3.org/1999/xlink" viewBox="0 0 428.4 85.35"><defs><style>.cls-1{fill:none;}.cls-2{fill:#262424;}.cls-3{clip-path:url(#clip-path);}</style><clipPath id="clip-path" transform="translate(0 0)"><rect class="cls-1" width="428.4" height="85.35"/></clipPath></defs><title>wallpaper_logo</title><polygon class="cls-2" points="87.31 1.39 87.31 47.91 113.9 47.91 113.9 59.85 74.11 59.85 74.11 1.39 87.31 1.39"/><rect class="cls-2" x="121.23" y="1.38" width="13.21" height="58.46"/><polygon class="cls-2" points="158.19 1.39 193.18 40.71 193.18 1.39 206.28 1.39 206.28 59.85 193.71 59.85 158.73 20.42 158.73 59.85 145.72 59.85 145.72 1.39 158.19 1.39"/><g class="cls-3"><path class="cls-2" d="M265.49,21.57c-4.43-6.33-10.25-9.81-19.55-9.81-11.73,0-19.34,7.39-19.34,18.92,0,11.31,7.94,18.91,19.34,18.91,9.3,0,15.12-3.5,19.55-9.85l10.26,5.95c-6,10.24-16,15.62-29.59,15.62-18.71,0-32.67-11.72-32.67-30.63S227.76,0,246.16,0c13.62,0,23.56,5.38,29.59,15.63Z" transform="translate(0 0)"/><path class="cls-2" d="M311.08,50c11,0,19.55-7.29,19.55-19.32s-8.56-19.36-19.55-19.36-19.55,7.29-19.55,19.36S300.08,50,311.08,50m0,11.31c-17.76,0-32.78-12.26-32.78-30.63S293.32,0,311.08,0s32.77,12.25,32.77,30.65-15,30.63-32.77,30.63" transform="translate(0 0)"/></g><polygon class="cls-2" points="411.26 1.39 389.91 43.79 389.38 43.79 368.89 1.39 351.23 1.39 351.23 59.85 364.03 59.85 364.03 18.94 364.65 18.94 383.69 59.85 394.78 59.85 414.54 18.94 415.18 18.94 415.18 59.85 428.18 59.85 428.18 1.39 411.26 1.39"/><g class="cls-3"><path class="cls-2" d="M11.51,78.94v6.14H10l-.33-.82A6.1,6.1,0,0,1,6,85.35c-3.33,0-5.91-2.14-5.91-5.56S2.67,74.25,6,74.25a5.86,5.86,0,0,1,5.32,2.66L9.42,78A3.73,3.73,0,0,0,6,76.43a3.37,3.37,0,1,0,0,6.74,4.91,4.91,0,0,0,3.26-.94V81l-2.7-.08v-2Z" transform="translate(0 0)"/></g><polygon class="cls-2" points="15.67 74.51 15.67 85.08 25.36 85.08 25.36 82.91 18.07 82.91 18.07 74.51 15.67 74.51"/><polygon class="cls-2" points="28.99 74.51 28.99 85.08 38.85 85.08 38.85 82.89 31.37 82.89 31.37 80.77 37.86 80.77 37.86 78.61 31.37 78.61 31.37 76.66 38.58 76.66 38.58 74.51 28.99 74.51"/><path class="cls-2" d="M48.51,76.63h.81l1.93,4.75H46.54ZM47,74.51l-4.6,10.57H45l.69-1.62h6.52l.69,1.62h2.53L50.9,74.51Z" transform="translate(0 0)"/><polygon class="cls-2" points="67.67 74.51 67.67 81.62 61.33 74.51 59.09 74.51 59.09 85.08 61.43 85.08 61.43 77.95 67.76 85.08 70.04 85.08 70.04 74.51 67.67 74.51"/><rect class="cls-2" x="74.11" y="74.51" width="2.39" height="10.57"/><polygon class="cls-2" points="89.16 74.51 89.16 81.62 82.84 74.51 80.58 74.51 80.58 85.08 82.93 85.08 82.93 77.95 89.26 85.08 91.53 85.08 91.53 74.51 89.16 74.51"/><g class="cls-3"><path class="cls-2" d="M106.83,78.94v6.14h-1.48l-.34-.82a6.11,6.11,0,0,1-3.68,1.09c-3.34,0-5.92-2.14-5.92-5.56s2.58-5.54,5.92-5.54a5.87,5.87,0,0,1,5.31,2.66L104.74,78a3.75,3.75,0,0,0-3.46-1.57,3.37,3.37,0,1,0,0,6.74,4.85,4.85,0,0,0,3.25-.94V81l-2.7-.08v-2Z" transform="translate(0 0)"/></g><rect class="cls-2" x="118.66" y="74.51" width="2.39" height="10.57"/><polygon class="cls-2" points="133.71 74.51 133.71 81.62 127.39 74.51 125.13 74.51 125.13 85.08 127.47 85.08 127.47 77.95 133.81 85.08 136.09 85.08 136.09 74.51 133.71 74.51"/><polygon class="cls-2" points="149.89 74.51 146.43 82.94 145.91 82.94 142.43 74.51 139.77 74.51 144.42 85.08 147.87 85.08 152.51 74.51 149.89 74.51"/><polygon class="cls-2" points="156.2 74.51 156.2 85.08 166.07 85.08 166.07 82.89 158.58 82.89 158.58 80.77 165.07 80.77 165.07 78.61 158.58 78.61 158.58 76.66 165.8 76.66 165.8 74.51 156.2 74.51"/><g class="cls-3"><path class="cls-2" d="M179.09,77.59a6.71,6.71,0,0,0-4.19-1.21c-2.07,0-2.56.52-2.56,1.12s.55.76,1.38.87l3.16.36c2.26.28,3.66,1.22,3.66,3.17,0,2.37-2.31,3.45-5.49,3.45a8.44,8.44,0,0,1-5.47-1.71l1.13-1.86a7.62,7.62,0,0,0,4.61,1.48c1.69,0,2.91-.4,2.91-1.32,0-.57-.31-.86-1.2-1l-3.56-.4c-2.15-.25-3.49-1.09-3.49-3.06,0-2.24,2.22-3.28,4.92-3.28a8.38,8.38,0,0,1,5.33,1.57Z" transform="translate(0 0)"/></g><polygon class="cls-2" points="183.84 74.51 183.84 76.64 188.14 76.64 188.14 85.08 190.53 85.08 190.53 76.64 194.82 76.64 194.82 74.51 183.84 74.51"/><polygon class="cls-2" points="209.38 74.51 205.51 82.17 205.42 82.17 201.71 74.51 198.52 74.51 198.52 85.08 200.82 85.08 200.82 77.68 200.95 77.68 204.38 85.08 206.39 85.08 209.97 77.68 210.09 77.68 210.09 85.08 212.43 85.08 212.43 74.51 209.38 74.51"/><polygon class="cls-2" points="216.5 74.51 216.5 85.08 226.37 85.08 226.37 82.89 218.91 82.89 218.91 80.77 225.39 80.77 225.39 78.61 218.91 78.61 218.91 76.66 226.1 76.66 226.1 74.51 216.5 74.51"/><polygon class="cls-2" points="238.89 74.51 238.89 81.62 232.57 74.51 230.32 74.51 230.32 85.08 232.67 85.08 232.67 77.95 239 85.08 241.28 85.08 241.28 74.51 238.89 74.51"/><polygon class="cls-2" points="244.96 74.51 244.96 76.64 249.26 76.64 249.26 85.08 251.66 85.08 251.66 76.64 255.95 76.64 255.95 74.51 244.96 74.51"/><g class="cls-3"><path class="cls-2" d="M276.52,78.16A3.87,3.87,0,0,0,273,76.37a3.25,3.25,0,0,0-3.5,3.42,3.29,3.29,0,0,0,3.5,3.42,3.89,3.89,0,0,0,3.53-1.76l1.87,1.06A5.8,5.8,0,0,1,273,85.35c-3.38,0-5.91-2.14-5.91-5.56s2.58-5.54,5.91-5.54a5.76,5.76,0,0,1,5.36,2.84Z" transform="translate(0 0)"/><path class="cls-2" d="M287.82,83.3a3.5,3.5,0,1,0-3.55-3.51,3.35,3.35,0,0,0,3.55,3.51m0,2a5.62,5.62,0,0,1-5.93-5.56c0-3.33,2.72-5.54,5.93-5.54a5.56,5.56,0,1,1,0,11.1" transform="translate(0 0)"/></g><polygon class="cls-2" points="308.52 74.51 304.66 82.17 304.56 82.17 300.85 74.51 297.66 74.51 297.66 85.08 299.98 85.08 299.98 77.68 300.08 77.68 303.54 85.08 305.55 85.08 309.12 77.68 309.23 77.68 309.23 85.08 311.58 85.08 311.58 74.51 308.52 74.51"/><g class="cls-3"><path class="cls-2" d="M318,82.91h4.86a1.11,1.11,0,0,0,1.22-1.13A1.09,1.09,0,0,0,323,80.65H318Zm0-4.34h4.49a1,1,0,0,0-.17-1.93H318Zm4.42-4.06c1.91,0,3.27,1.1,3.27,2.82a2.05,2.05,0,0,1-.83,1.79,2.76,2.76,0,0,1,1.56,2.66,3.35,3.35,0,0,1-3.49,3.3h-7.33V74.51Z" transform="translate(0 0)"/></g><rect class="cls-2" x="330.21" y="74.51" width="2.38" height="10.57"/><polygon class="cls-2" points="345.26 74.51 345.26 81.62 338.93 74.51 336.67 74.51 336.67 85.08 339.02 85.08 339.02 77.95 345.34 85.08 347.62 85.08 347.62 74.51 345.26 74.51"/><path class="cls-2" d="M357.42,76.63h.82l1.91,4.75h-4.71Zm-1.5-2.12-4.6,10.57h2.56l.68-1.62h6.53l.68,1.62h2.53l-4.5-10.57Z" transform="translate(0 0)"/><polygon class="cls-2" points="365.89 74.51 365.89 76.64 370.19 76.64 370.19 85.08 372.57 85.08 372.57 76.64 376.88 76.64 376.88 74.51 365.89 74.51"/><rect class="cls-2" x="380.57" y="74.51" width="2.39" height="10.57"/><g class="cls-3"><path class="cls-2" d="M392.81,83.3a3.5,3.5,0,1,0-3.54-3.51,3.36,3.36,0,0,0,3.54,3.51m0,2a5.62,5.62,0,0,1-5.93-5.56c0-3.33,2.71-5.54,5.93-5.54a5.56,5.56,0,1,1,0,11.1" transform="translate(0 0)"/></g><polygon class="cls-2" points="411.24 74.51 411.24 81.62 404.92 74.51 402.66 74.51 402.66 85.08 405.02 85.08 405.02 77.95 411.33 85.08 413.6 85.08 413.6 74.51 411.24 74.51"/><g class="cls-3"><path class="cls-2" d="M427,77.59a6.74,6.74,0,0,0-4.2-1.21c-2,0-2.55.52-2.55,1.12s.56.76,1.37.87l3.19.36C427,79,428.4,80,428.4,81.9c0,2.37-2.3,3.45-5.48,3.45a8.46,8.46,0,0,1-5.47-1.71l1.13-1.86a7.67,7.67,0,0,0,4.63,1.48c1.66,0,2.89-.4,2.89-1.32,0-.57-.31-.86-1.21-1l-3.55-.4c-2.17-.25-3.49-1.09-3.49-3.06,0-2.24,2.22-3.28,4.91-3.28a8.44,8.44,0,0,1,5.35,1.57Z" transform="translate(0 0)"/><path class="cls-2" d="M63,25.86V59.75H54.8L53,55.22c-5.59,3.9-11.6,6-20.38,6C14.26,61.23,0,49.52,0,30.61S14.26,0,32.62,0C46.15,0,55.33,4.85,62,14.78l-10.45,5.9C46.88,14.67,42,12,32.42,12c-11.72,0-19.33,7-19.33,18.57S20.7,49.2,32.42,49.2c8.34,0,13.19-1.58,17.95-5.29V37.27l-14.89-.53V25.86Z" transform="translate(0 0)"/></g></svg>